<svg xmlns="http://www.w3.org/2000/svg" version="1.1" xmlns:xlink="http://www.w3.org/1999/xlink" xmlns:svgjs="http://svgjs.dev/svgjs" width="1000" height="623" viewBox="0 0 1000 623"><g transform="matrix(1,0,0,1,-0.6060329733663252,0.2522267206477409)"><svg viewBox="0 0 396 247" data-background-color="#ffffff" preserveAspectRatio="xMidYMid meet" height="623" width="1000" xmlns="http://www.w3.org/2000/svg" xmlns:xlink="http://www.w3.org/1999/xlink"><g id="tight-bounds" transform="matrix(1,0,0,1,0.23998906747124238,-0.09999999999999432)"><svg viewBox="0 0 395.52 247.2" height="247.2" width="395.52"><g><svg viewBox="0 0 395.52 247.2" height="247.2" width="395.52"><g transform="matrix(1,0,0,1,2.842170943040401e-14,49.08985835694051)"><svg viewBox="0 0 395.5199999999999 149.02028328611897" height="149.02028328611897" width="395.5199999999999"><g><svg viewBox="0 0 395.5199999999999 149.02028328611897" height="149.02028328611897" width="395.5199999999999"><g><svg viewBox="0 0 395.52000000000004 149.020283286119" height="149.02028328611897" width="395.5199999999999"><g><svg viewBox="0 0 395.52000000000004 149.020283286119" height="149.020283286119" width="395.52000000000004"><g><svg viewBox="0 0 395.52000000000004 149.020283286119" height="149.020283286119" width="395.52000000000004"><g><svg viewBox="0 0 395.52000000000004 149.020283286119" height="149.020283286119" width="395.52000000000004"><g transform="matrix(1,0,0,1,0,0)"><svg width="395.52000000000004" viewBox="0.05000000447034836 -43.650001525878906 176.489990234375 66.5" height="149.020283286119" data-palette-color="#ffffff"><path d="M24.7-11.15Q25.35-11.15 25.73-10.55 26.1-9.95 26.1-8.9L26.1-8.9Q26.1-6.9 25.15-5.8L25.15-5.8Q23-3.15 20.45-1.45 17.9 0.25 14.6 0.25L14.6 0.25Q4.4 0.25 4.4-14.1L4.4-14.1Q4.4-16.3 4.55-18.55L4.55-18.55 2.6-18.55Q1.1-18.55 0.58-19.1 0.05-19.65 0.05-20.85L0.05-20.85Q0.05-23.65 2.3-23.65L2.3-23.65 5.15-23.65Q6-29.15 7.75-33.7 9.5-38.25 11.98-40.95 14.45-43.65 17.3-43.65L17.3-43.65Q19.4-43.65 20.6-41.8 21.8-39.95 21.8-37.15L21.8-37.15Q21.8-29.4 15.3-23.65L15.3-23.65 20.9-23.65Q21.7-23.65 22.05-23.3 22.4-22.95 22.4-22L22.4-22Q22.4-18.55 16.75-18.55L16.75-18.55 10.65-18.55Q10.55-16.05 10.55-14.65L10.55-14.65Q10.55-9.45 11.78-7.35 13-5.25 15.65-5.25L15.65-5.25Q17.8-5.25 19.45-6.55 21.1-7.85 23.35-10.45L23.35-10.45Q23.95-11.15 24.7-11.15L24.7-11.15ZM15.95-38.85Q15.2-38.85 14.28-36.98 13.35-35.1 12.53-31.78 11.7-28.45 11.15-24.4L11.15-24.4Q14.1-26.95 15.58-30.13 17.05-33.3 17.05-35.9L17.05-35.9Q17.05-38.85 15.95-38.85L15.95-38.85ZM43.45-5.6Q44.5-5.6 45.05-4.9 45.6-4.2 45.6-3.15L45.6-3.15Q45.6-1.85 44.77-0.83 43.95 0.2 42.55 0.2L42.55 0.2Q40.15 0.2 35.4-0.15L35.4-0.15Q34.45-0.2 31.9-0.35 29.35-0.5 27.9-0.5L27.9-0.5Q27.25-0.5 26-0.05L26-0.05Q25.75 0 25.02 0.2 24.3 0.4 23.8 0.4L23.8 0.4Q23 0.4 22.47-0.33 21.95-1.05 21.95-2.5L21.95-2.5Q21.95-4.1 22.7-4.98 23.45-5.85 25.05-6.55L25.05-6.55Q28.45-8.05 31.47-10.38 34.5-12.7 36.32-15.4 38.15-18.1 38.15-20.55L38.15-20.55Q38.15-22.5 37.27-23.43 36.4-24.35 34.5-24.35L34.5-24.35Q32.3-24.35 30.97-23.15 29.65-21.95 29.65-19.8L29.65-19.8Q29.65-16.85 26.7-16.85L26.7-16.85Q25.3-16.85 24.52-17.65 23.75-18.45 23.75-19.95L23.75-19.95Q23.75-22.45 25.05-24.55 26.35-26.65 28.95-27.93 31.55-29.2 35.3-29.2L35.3-29.2Q39.8-29.2 42.35-26.95 44.9-24.7 44.9-20.7L44.9-20.7Q44.9-16.9 41.57-12.75 38.25-8.6 32-5.4L32-5.4 43.45-5.6ZM87.34-15.2Q87.5-15.25 87.84-15.25L87.84-15.25Q88.59-15.25 89-14.75 89.4-14.25 89.4-13.4L89.4-13.4Q89.4-11.85 88.8-10.98 88.2-10.1 87-9.7L87-9.7Q84.7-8.95 82.09-8.95L82.09-8.95Q79.9-8.95 77.95-9.55L77.95-9.55Q76.5-7.2 74.75-4.7L74.75-4.7Q72.75-1.85 71.32-0.8 69.9 0.25 68.09 0.25L68.09 0.25Q66.09 0.25 65.07-1.3 64.05-2.85 63.8-6.4L63.8-6.4 63.55-10.05Q62-5.85 60.77-3.65 59.55-1.45 58.32-0.6 57.1 0.25 55.45 0.25L55.45 0.25Q53.4 0.25 52.22-1.35 51.05-2.95 50.75-6.4L50.75-6.4Q50.15-13.4 50.15-18.65L50.15-18.65 50.15-20.4Q50.2-22.05 51.05-22.7 51.9-23.35 53.6-23.35L53.6-23.35Q54.9-23.35 55.52-22.78 56.15-22.2 56.15-20.85L56.15-20.85Q56.15-15.1 56.85-5.9L56.85-5.9Q60.25-13.05 63.1-20.8L63.1-20.8Q63.65-22.3 64.42-22.83 65.2-23.35 66.3-23.35L66.3-23.35Q67.65-23.35 68.17-22.8 68.7-22.25 68.7-20.85L68.7-20.85Q68.7-15.1 69.4-5.9L69.4-5.9Q72.4-10.35 73.9-13L73.9-13Q73.15-14.45 73.15-16.45L73.15-16.45Q73.15-18.15 73.9-19.75 74.65-21.35 75.95-22.35 77.25-23.35 78.9-23.35L78.9-23.35Q80.34-23.35 81.25-22.33 82.15-21.3 82.15-19.35L82.15-19.35Q82.15-17.1 80.95-14.2L80.95-14.2Q82.84-14.3 86-14.95L86-14.95 87.34-15.2ZM91.49 0.25Q89.29 0.25 88.17-0.95 87.04-2.15 87.04-4.1L87.04-4.1Q87.04-6.35 88.32-7.7 89.59-9.05 91.89-9.05L91.89-9.05Q94.09-9.05 95.22-7.98 96.34-6.9 96.34-4.8L96.34-4.8Q96.34-2.5 95.04-1.13 93.74 0.25 91.49 0.25L91.49 0.25ZM107.04 0.25Q103.94 0.25 102.09-2 100.24-4.25 100.24-7.9L100.24-7.9Q100.24-11.9 102.09-15.48 103.94-19.05 107.02-21.23 110.09-23.4 113.54-23.4L113.54-23.4Q114.64-23.4 115.02-22.98 115.39-22.55 115.64-21.45L115.64-21.45Q116.69-21.65 117.84-21.65L117.84-21.65Q120.29-21.65 120.29-19.9L120.29-19.9Q120.29-18.85 119.54-14.9L119.54-14.9Q118.39-9.15 118.39-6.9L118.39-6.9Q118.39-6.15 118.77-5.7 119.14-5.25 119.74-5.25L119.74-5.25Q120.69-5.25 122.04-6.48 123.39-7.7 125.69-10.45L125.69-10.45Q126.29-11.15 127.04-11.15L127.04-11.15Q127.69-11.15 128.06-10.55 128.44-9.95 128.44-8.9L128.44-8.9Q128.44-6.9 127.49-5.8L127.49-5.8Q125.44-3.25 123.14-1.5 120.84 0.25 118.69 0.25L118.69 0.25Q117.04 0.25 115.67-0.88 114.29-2 113.59-3.95L113.59-3.95Q110.99 0.25 107.04 0.25L107.04 0.25ZM108.84-4.8Q109.94-4.8 110.94-6.1 111.94-7.4 112.39-9.55L112.39-9.55 114.24-18.75Q112.14-18.7 110.37-17.18 108.59-15.65 107.54-13.15 106.49-10.65 106.49-7.85L106.49-7.85Q106.49-6.3 107.12-5.55 107.74-4.8 108.84-4.8L108.84-4.8ZM151.09-11.15Q151.74-11.15 152.11-10.55 152.49-9.95 152.49-8.9L152.49-8.9Q152.49-6.9 151.54-5.8L151.54-5.8Q149.39-3.15 146.91-1.45 144.44 0.25 141.29 0.25L141.29 0.25Q138.64 0.25 136.99-1.65L136.99-1.65Q134.14 0.2 131.04 0.25L131.04 0.25Q130.39 9.9 128.09 16.38 125.79 22.85 121.34 22.85L121.34 22.85Q118.64 22.85 117.34 20.9 116.04 18.95 116.04 15.5L116.04 15.5Q116.04 10.6 118.29 4.08 120.54-2.45 125.24-10.3L125.24-10.3Q125.24-17.6 125.14-20.45L125.14-20.45Q125.09-21.9 126.29-22.75 127.49-23.6 129.29-23.6L129.29-23.6Q130.34-23.6 130.81-23.18 131.29-22.75 131.34-21.5L131.34-21.5Q131.34-20.25 131.39-19.65L131.39-19.65Q132.99-21.65 134.54-22.53 136.09-23.4 137.84-23.4L137.84-23.4Q140.64-23.4 142.41-21.15 144.19-18.9 144.19-15.25L144.19-15.25Q144.19-12.6 143.34-10.1 142.49-7.6 140.99-5.55L140.99-5.55Q142.04-5.25 142.74-5.25L142.74-5.25Q144.39-5.25 145.89-6.45 147.39-7.65 149.74-10.45L149.74-10.45Q150.34-11.15 151.09-11.15L151.09-11.15ZM131.29-4.55Q133.09-4.95 134.61-6.53 136.14-8.1 137.04-10.43 137.94-12.75 137.94-15.3L137.94-15.3Q137.94-16.8 137.34-17.57 136.74-18.35 135.74-18.35L135.74-18.35Q133.94-18.35 131.39-14.55L131.39-14.55Q131.34-12.35 131.34-8.1L131.34-8.1Q131.34-5.8 131.29-4.55L131.29-4.55ZM121.74 17.95Q123.09 17.95 123.99 12.08 124.89 6.2 125.14-2.55L125.14-2.55Q122.99 2.45 121.74 7 120.49 11.55 120.49 14.65L120.49 14.65Q120.49 16.25 120.86 17.1 121.24 17.95 121.74 17.95L121.74 17.95ZM175.14-11.15Q175.79-11.15 176.16-10.55 176.54-9.95 176.54-8.9L176.54-8.9Q176.54-6.9 175.59-5.8L175.59-5.8Q173.44-3.15 170.96-1.45 168.49 0.25 165.34 0.25L165.34 0.25Q162.69 0.25 161.04-1.65L161.04-1.65Q158.19 0.2 155.09 0.25L155.09 0.25Q154.44 9.9 152.14 16.38 149.84 22.85 145.39 22.85L145.39 22.85Q142.69 22.85 141.39 20.9 140.09 18.95 140.09 15.5L140.09 15.5Q140.09 10.6 142.34 4.08 144.59-2.45 149.29-10.3L149.29-10.3Q149.29-17.6 149.19-20.45L149.19-20.45Q149.14-21.9 150.34-22.75 151.54-23.6 153.34-23.6L153.34-23.6Q154.39-23.6 154.86-23.18 155.34-22.75 155.39-21.5L155.39-21.5Q155.39-20.25 155.44-19.65L155.44-19.65Q157.04-21.65 158.59-22.53 160.14-23.4 161.89-23.4L161.89-23.4Q164.69-23.4 166.46-21.15 168.24-18.9 168.24-15.25L168.24-15.25Q168.24-12.6 167.39-10.1 166.54-7.6 165.04-5.55L165.04-5.55Q166.09-5.25 166.79-5.25L166.79-5.25Q168.44-5.25 169.94-6.45 171.44-7.65 173.79-10.45L173.79-10.45Q174.39-11.15 175.14-11.15L175.14-11.15ZM155.34-4.55Q157.14-4.95 158.66-6.53 160.19-8.1 161.09-10.43 161.99-12.75 161.99-15.3L161.99-15.3Q161.99-16.8 161.39-17.57 160.79-18.35 159.79-18.35L159.79-18.35Q157.99-18.35 155.44-14.55L155.44-14.55Q155.39-12.35 155.39-8.1L155.39-8.1Q155.39-5.8 155.34-4.55L155.34-4.55ZM145.79 17.95Q147.14 17.95 148.04 12.08 148.94 6.2 149.19-2.55L149.19-2.55Q147.04 2.45 145.79 7 144.54 11.55 144.54 14.65L144.54 14.65Q144.54 16.25 144.91 17.1 145.29 17.95 145.79 17.95L145.79 17.95Z" opacity="1" transform="matrix(1,0,0,1,0,0)" fill="#ffffff" class="undefined-text-0" data-fill-palette-color="primary" id="text-0"></path></svg></g></svg></g></svg></g></svg></g><g></g></svg></g></svg></g></svg></g></svg></g><defs></defs></svg><rect width="395.52" height="247.2" fill="none" stroke="none" visibility="hidden"></rect></g></svg></g></svg>